# Blender 5.0.1
# www.blender.org
o Cube
v -0.325160 -0.101596 -0.041149 0.8274 0.8235 0.8431
v -0.325160 0.101596 -0.041149 0.8274 0.8235 0.8431
v -0.651788 0.000000 1.110500 0.7921 0.7882 0.8117
v 0.000000 -0.757525 0.560641 0.5569 0.5451 0.6000
v 0.000000 0.644223 0.155147 0.6118 0.6000 0.6471
v 0.000000 0.000000 3.736012 0.4863 0.4706 0.5333
v 0.000000 -0.416847 -0.993339 0.8509 0.8470 0.8666
v 0.000000 0.416847 -1.253226 0.8274 0.8235 0.8431
v 0.000000 0.000000 -8.387965 1.0000 1.0000 1.0000
v -5.704929 0.811004 -1.487102 1.0000 1.0000 1.0000
v -2.681635 0.314741 2.306047 1.0000 1.0000 1.0000
v -2.591055 0.098413 0.838016 1.0000 1.0000 1.0000
v -2.448685 0.608802 0.940307 1.0000 1.0000 1.0000
v 0.325160 -0.101596 -0.041149 0.8274 0.8235 0.8431
v 0.325160 0.101596 -0.041149 0.8274 0.8235 0.8431
v 0.651788 0.000000 1.110500 0.7921 0.7882 0.8117
v 5.704929 0.811004 -1.487102 1.0000 1.0000 1.0000
v 2.681635 0.314741 2.306047 1.0000 1.0000 1.0000
v 2.591055 0.098413 0.838016 1.0000 1.0000 1.0000
v 2.448685 0.608802 0.940307 1.0000 1.0000 1.0000
vn -0.5807 0.8013 0.1442
vn -0.8063 -0.5638 -0.1789
vn -0.8405 0.5349 -0.0864
vn -0.6829 -0.7106 0.1695
vn 1.0000 -0.0000 -0.0000
vn -0.7497 -0.6607 -0.0372
vn -0.7643 0.6437 -0.0376
vn -0.9992 -0.0000 -0.0389
vn 0.0993 0.9883 0.1154
vn 0.2596 -0.0000 -0.9657
vn -0.1767 -0.9836 0.0367
vn -0.8131 0.5530 -0.1818
vn -0.8441 -0.5238 -0.1148
vn -0.0700 -0.9875 0.1412
vn -0.0853 0.9769 0.1958
vn -0.3059 -0.9444 0.1203
vn -0.0091 -0.9594 -0.2819
vn 0.2896 0.9243 0.2484
vn 0.3294 0.8689 -0.3695
vn 0.5807 0.8013 0.1442
vn 0.8063 -0.5638 -0.1789
vn 0.8405 0.5349 -0.0864
vn 0.6829 -0.7106 0.1695
vn 0.7497 -0.6607 -0.0372
vn 0.7643 0.6437 -0.0376
vn 0.9992 -0.0000 -0.0389
vn -0.0993 0.9883 0.1154
vn -0.2596 -0.0000 -0.9657
vn 0.1767 -0.9836 0.0367
vn 0.8131 0.5530 -0.1818
vn 0.8441 -0.5238 -0.1148
vn 0.0700 -0.9875 0.1412
vn 0.0853 0.9769 0.1958
vn 0.3059 -0.9444 0.1203
vn 0.0091 -0.9594 -0.2819
vn -0.2896 0.9243 0.2484
vn -0.3294 0.8689 -0.3695
vt 0.750000 0.500000
vt 0.625000 0.500000
vt 0.375000 0.500000
vt 0.375000 0.750000
vt 0.250000 0.750000
vt 0.750000 0.750000
vt 0.625000 0.750000
vt 0.250000 0.500000
vt 0.427632 0.436238
vt 0.000000 0.000000
s 0
f 5/1/1 3/2/1 6/1/1
f 3/3/2 1/4/2 4/5/2
f 5/6/3 8/6/3 2/7/3
f 3/3/4 4/8/4 6/9/4
f 8/10/5 7/10/5 9/10/5
f 5/10/5 7/10/5 8/10/5
f 7/5/6 1/4/6 9/5/6
f 2/7/7 8/6/7 9/7/7
f 1/4/8 2/7/8 9/4/8
f 3/2/9 2/7/9 10/7/9
f 2/7/10 1/4/10 10/7/10
f 1/4/11 3/3/11 10/4/11
f 2/7/12 3/2/12 5/6/12
f 7/5/13 4/5/13 1/4/13
f 11/10/14 12/10/14 3/10/14
f 11/10/15 13/10/15 10/10/15
f 11/10/16 10/10/16 12/10/16
f 12/10/17 10/10/17 3/10/17
f 11/10/18 3/10/18 13/10/18
f 13/10/19 3/10/19 10/10/19
f 5/1/20 6/1/20 16/2/20
f 16/3/21 4/5/21 14/4/21
f 5/6/22 15/7/22 8/6/22
f 16/3/23 6/9/23 4/8/23
f 7/5/24 9/5/24 14/4/24
f 15/7/25 9/7/25 8/6/25
f 14/4/26 9/4/26 15/7/26
f 16/2/27 17/7/27 15/7/27
f 15/7/28 17/7/28 14/4/28
f 14/4/29 17/4/29 16/3/29
f 15/7/30 5/6/30 16/2/30
f 7/5/31 14/4/31 4/5/31
f 18/10/32 16/10/32 19/10/32
f 18/10/33 17/10/33 20/10/33
f 18/10/34 19/10/34 17/10/34
f 19/10/35 16/10/35 17/10/35
f 18/10/36 20/10/36 16/10/36
f 20/10/37 17/10/37 16/10/37
f 5/10/5 4/10/5 7/10/5
